<?xml version="1.0" standalone="no"?>
<!DOCTYPE svg PUBLIC "-//W3C//DTD SVG 20010904//EN"
 "http://www.w3.org/TR/2001/REC-SVG-20010904/DTD/svg10.dtd">
<svg version="1.0" xmlns="http://www.w3.org/2000/svg"
 width="204.000000pt" height="200.000000pt" viewBox="0 0 204.000000 200.000000"
 preserveAspectRatio="xMidYMid meet">

<g transform="translate(0.000000,200.000000) scale(0.100000,-0.100000)"
fill="#000000" stroke="none">
<path d="M175 1976 c-65 -30 -112 -78 -144 -146 -24 -51 -25 -65 -26 -208 0
-141 2 -155 19 -168 25 -18 41 -18 60 2 13 12 16 41 16 146 0 153 11 199 61
249 48 48 98 59 263 59 127 0 136 1 146 21 9 16 8 26 -5 45 -15 24 -17 24
-178 24 -149 0 -166 -2 -212 -24z"/>
<path d="M1485 1980 c-15 -17 -16 -24 -7 -45 13 -27 13 -28 184 -25 143 2 217
-30 258 -110 17 -34 20 -59 20 -180 0 -127 2 -142 20 -160 24 -24 29 -25 59
-4 23 16 23 18 19 178 -4 151 -5 164 -30 212 -15 29 -46 68 -69 87 -65 56
-110 67 -284 67 -139 0 -153 -2 -170 -20z"/>
<path d="M885 1816 c-307 -61 -540 -271 -635 -571 -32 -99 -39 -300 -16 -415
34 -164 108 -300 228 -416 166 -162 330 -227 568 -227 142 0 235 20 343 74
158 80 238 164 195 207 -21 21 -43 13 -108 -38 -34 -28 -83 -62 -109 -74 -50
-26 -189 -71 -196 -64 -3 2 20 76 51 163 64 184 68 234 22 268 -25 19 -28 19
-75 3 -82 -29 -169 -31 -234 -7 -75 28 -149 105 -174 180 -46 138 23 297 160
369 41 22 63 26 120 26 166 -1 295 -128 295 -291 0 -60 14 -83 50 -83 38 0 44
13 42 88 -2 53 0 62 12 55 7 -4 75 -59 150 -120 84 -70 136 -120 136 -131 0
-10 -7 -42 -16 -72 -15 -50 -15 -54 4 -72 28 -29 60 -15 82 35 49 112 65 342
34 480 -70 308 -301 549 -596 621 -95 23 -247 29 -333 12z m320 -112 c103 -25
277 -117 244 -128 -8 -3 -113 -40 -234 -82 -243 -84 -322 -117 -389 -164 -25
-17 -46 -26 -46 -21 0 14 111 394 117 401 9 10 119 17 183 13 36 -2 92 -11
125 -19z m-476 -229 c-58 -206 -82 -307 -96 -414 l-8 -54 -118 152 c-96 122
-118 157 -113 175 11 44 111 170 181 229 57 48 203 133 212 124 1 -2 -25 -97
-58 -212z m926 -140 c55 -111 74 -181 82 -310 6 -99 6 -100 -14 -85 -12 8
-117 95 -233 194 -150 125 -232 187 -278 209 l-65 30 194 68 194 67 38 -41
c21 -23 58 -82 82 -132z m-1111 -369 c180 -229 200 -252 240 -277 l29 -18 -24
-5 c-13 -3 -89 -10 -169 -16 -80 -6 -159 -13 -177 -16 -30 -4 -34 -2 -58 45
-47 93 -69 195 -69 321 -1 67 5 138 13 170 l14 55 21 -29 c12 -16 92 -120 180
-230z m565 -509 c-29 -84 -57 -158 -63 -166 -22 -29 -220 6 -332 60 -71 33
-178 114 -216 162 l-27 34 112 7 c150 9 465 45 524 59 27 7 50 9 52 4 1 -4
-21 -77 -50 -160z"/>
<path d="M1030 1020 c-15 -28 -6 -50 32 -81 232 -183 714 -539 732 -539 28 0
46 18 46 46 0 17 -42 53 -177 155 -98 74 -267 203 -376 287 -204 156 -235 172
-257 132z"/>
<path d="M14 535 c-14 -22 -16 -46 -12 -165 5 -132 7 -144 37 -204 35 -72 84
-117 151 -141 45 -16 345 -22 366 -7 19 13 23 39 8 60 -13 19 -26 21 -167 24
-176 4 -211 15 -262 87 -30 42 -30 44 -33 194 -2 84 -8 158 -14 165 -18 21
-56 14 -74 -13z"/>
<path d="M1956 544 c-13 -13 -16 -41 -16 -155 0 -157 -12 -197 -72 -242 -49
-37 -99 -47 -240 -47 -102 0 -130 -3 -142 -16 -20 -20 -20 -38 0 -59 14 -14
40 -16 183 -13 188 3 214 11 287 84 67 66 84 127 84 294 0 147 -7 170 -50 170
-10 0 -26 -7 -34 -16z"/>
</g>
</svg>
